<?xml version="1.0" encoding="UTF-8" standalone="no"?>
<!-- Created with Inkscape (http://www.inkscape.org/) -->

<svg
   xmlns:dc="http://purl.org/dc/elements/1.1/"
   xmlns:cc="http://creativecommons.org/ns#"
   xmlns:rdf="http://www.w3.org/1999/02/22-rdf-syntax-ns#"
   xmlns:svg="http://www.w3.org/2000/svg"
   xmlns="http://www.w3.org/2000/svg"
   xmlns:sodipodi="http://sodipodi.sourceforge.net/DTD/sodipodi-0.dtd"
   xmlns:inkscape="http://www.inkscape.org/namespaces/inkscape"
   width="64px"
   height="64px"
   id="svg2985"
   version="1.1"
   inkscape:version="0.48.4 r9939"
   sodipodi:docname="traccar.svg">
  <defs
     id="defs2987" />
  <sodipodi:namedview
     id="base"
     pagecolor="#ffffff"
     bordercolor="#666666"
     borderopacity="1.0"
     inkscape:pageopacity="0.0"
     inkscape:pageshadow="2"
     inkscape:zoom="4"
     inkscape:cx="-11.637539"
     inkscape:cy="7.0291785"
     inkscape:current-layer="layer1"
     showgrid="true"
     inkscape:document-units="px"
     inkscape:grid-bbox="true"
     inkscape:snap-bbox="true"
     inkscape:bbox-paths="true"
     inkscape:bbox-nodes="true"
     inkscape:snap-bbox-edge-midpoints="true"
     inkscape:snap-bbox-midpoints="true"
     inkscape:object-paths="true"
     inkscape:object-nodes="true"
     inkscape:snap-intersection-paths="true"
     inkscape:snap-smooth-nodes="true"
     inkscape:snap-midpoints="true"
     inkscape:snap-center="true"
     inkscape:snap-object-midpoints="true"
     inkscape:window-width="1920"
     inkscape:window-height="1176"
     inkscape:window-x="0"
     inkscape:window-y="24"
     inkscape:window-maximized="1"
     inkscape:snap-global="false" />
  <metadata
     id="metadata2990">
    <rdf:RDF>
      <cc:Work
         rdf:about="">
        <dc:format>image/svg+xml</dc:format>
        <dc:type
           rdf:resource="http://purl.org/dc/dcmitype/StillImage" />
        <dc:title />
      </cc:Work>
    </rdf:RDF>
  </metadata>
  <g
     id="layer1"
     inkscape:label="Layer 1"
     inkscape:groupmode="layer">
    <g
       id="g2995">
      <path
         transform="matrix(11.849785,-6.8414759,4.1048857,7.1098702,-141.6761,-453.06363)"
         d="m -4.633625,61.745384 a 2.0991254,3.4985423 0 1 1 -4.1982508,0 2.0991254,3.4985423 0 1 1 4.1982508,0 z"
         sodipodi:ry="3.4985423"
         sodipodi:rx="2.0991254"
         sodipodi:cy="61.745384"
         sodipodi:cx="-6.7327504"
         id="path3038"
         style="fill:#ffffff"
         sodipodi:type="arc" />
      <path
         transform="matrix(0.98000485,-0.56580602,0.76260819,1.3208761,-13.500496,-10.292296)"
         d="m 16.134891,38.929852 a 1.9927555,1.478496 0 1 1 -3.985511,0 1.9927555,1.478496 0 1 1 3.985511,0 z"
         sodipodi:ry="1.478496"
         sodipodi:rx="1.9927555"
         sodipodi:cy="38.929852"
         sodipodi:cx="14.142136"
         id="path2993"
         style="fill:#000000"
         sodipodi:type="arc" />
      <path
         id="path3004"
         d="m 36.965211,24.251054 -2.816072,3.57877 c 0.657208,0.517134 1.313001,1.146671 1.756681,1.915146 0.443679,0.768474 0.660975,1.651177 0.780224,2.478901 l 4.507342,-0.649405 C 41.001257,30.166972 40.565802,28.79619 39.81164,27.489944 39.057477,26.183697 38.088074,25.121191 36.965211,24.251054 z"
         style="fill:#000000"
         inkscape:connector-curvature="0" />
      <path
         id="path3014"
         d="m 42.404828,17.041928 -2.816072,3.578769 c 1.591875,1.223919 3.062315,2.767181 4.128704,4.614221 1.066388,1.847038 1.667671,3.892108 1.931679,5.882671 l 4.507341,-0.649405 c -0.336471,-2.571017 -1.155959,-5.102841 -2.5332,-7.488294 -1.377241,-2.385452 -3.160122,-4.36106 -5.218452,-5.937962 z"
         style="fill:#000000"
         inkscape:connector-curvature="0" />
      <path
         sodipodi:end="4.712389"
         sodipodi:start="1.5707963"
         transform="matrix(3.9507144,-2.2809459,1.4097023,2.4416757,-59.699972,-127.24372)"
         d="m -2.0227272,68.375862 a 1.9772727,3.1992946 0 1 1 0,-6.398589 l -1e-7,3.199294 z"
         sodipodi:ry="3.1992946"
         sodipodi:rx="1.9772727"
         sodipodi:cy="65.176567"
         sodipodi:cx="-2.0227273"
         id="path3036"
         style="fill:#000000"
         sodipodi:type="arc" />
      <path
         id="path3038-8"
         d="M 17.638883,7.1258129 C 3.9012503,15.057239 -0.80560983,32.62348 7.1258152,46.361111 15.057241,60.098742 32.623482,64.805603 46.361115,56.874177 60.098748,48.942752 64.805608,31.37651 56.874183,17.63888 48.942758,3.9012493 31.376516,-0.80561226 17.638883,7.1258129 z m 1.689543,2.9263741 C 31.449867,3.0538711 46.949491,7.2069826 53.947808,19.328422 60.946126,31.449863 56.793012,46.949488 44.671573,53.947803 32.550132,60.94612 17.050507,56.793009 10.05219,44.671568 3.0538724,32.550127 7.2069849,17.050503 19.328426,10.052187 z"
         style="fill:#000000"
         inkscape:connector-curvature="0" />
    </g>
  </g>
</svg>
